#!OML:ASF X:\für Bonn\!DataBase\2005_08_10_Bjorn_Final\c3d\bjorn.ASF
:FULLY-SPECIFIED
:DEGREES
109
root 24.2721 18.0587 -1.18027 11.3912 -74.541 -336.796
lowerback 44.889 -0.309491 9.42621
upperback 22.7605 -0.000138778 1.97403
thorax 5.18282 -0.0802933 -2.66586
lowerneck 4.49919 -4.90964 5.25416
upperneck -15.9904 -6.42015 0.0107408
head -5.74629 -3.58968 -0.432504
rclavicle 2.22639e-014 1.59028e-015
rhumerus 59.412 -2.78903 -62.0432
rradius 15.9072
rwrist -8.80373
rhand -12.2675 9.71287
rfingers 7.12502
rthumb 13.7993 -19.8094
lclavicle 2.22639e-014 1.59028e-015
lhumerus 57.3267 -17.8476 78.2268
lradius 14.2502
lwrist -28.2147
lhand -26.2919 -8.84045
lfingers 7.12502
lthumb 0.263787 21.1391
rfemur -74.201 -16.6383 19.9316
rtibia 53.7292
rfoot -7.28236 15.1252
rtoes 1.35829
lfemur -70.5269 12.9052 -31.8566
ltibia 50.5779
lfoot -7.13137 -5.84767
ltoes -13.5049
110
root 24.269 18.0133 -1.16388 11.7397 -74.4097 -336.659
lowerback 45.3763 -0.407343 9.4662
upperback 22.6371 -0.0270858 1.96167
thorax 4.92237 -0.0940302 -2.67794
lowerneck 4.3492 -4.87308 5.37015
upperneck -16.0632 -6.38431 -0.0664472
head -5.74908 -3.57794 -0.480456
rclavicle 6.36111e-015 -1.82882e-014
rhumerus 60.2215 -3.03048 -62.3957
rradius 15.5585
rwrist -8.40242
rhand -12.2745 9.57891
rfingers 7.12502
rthumb 13.7925 -19.9439
lclavicle 6.36111e-015 -1.82882e-014
lhumerus 57.6845 -17.4144 79.1942
lradius 13.8601
lwrist -29.5115
lhand -26.231 -9.08539
lfingers 7.12502
lthumb 0.322675 20.8941
rfemur -75.0909 -16.7687 19.9768
rtibia 54.3279
rfoot -7.44715 15.1218
rtoes 1.27566
lfemur -71.4781 12.9032 -32.2863
ltibia 51.229
lfoot -7.22367 -6.21919
ltoes -12.9075
111
root 24.2658 17.9671 -1.14651 12.0765 -74.2836 -336.498
lowerback 45.8177 -0.503679 9.50881
upperback 22.5133 -0.0534088 1.94415
thorax 4.67498 -0.105638 -2.69771
lowerneck 4.27624 -4.83117 5.48997
upperneck -16.1825 -6.33837 -0.158865
head -5.77994 -3.5606 -0.531594
rclavicle 4.29375e-014 6.52014e-014
rhumerus 61.0064 -3.26667 -62.7737
rradius 15.2306
rwrist -7.97579
rhand -12.3091 9.48599
rfingers 7.12502
rthumb 13.7591 -20.0391
lclavicle 4.29375e-014 6.52014e-014
lhumerus 58.0211 -17.0442 80.0767
lradius 13.5241
lwrist -30.7026
lhand -26.1215 -9.28864
lfingers 7.12502
lthumb 0.428365 20.6907
rfemur -75.9726 -16.8755 19.9835
rtibia 54.9177
rfoot -7.64831 15.1133
rtoes 1.15045
lfemur -72.4354 12.8676 -32.715
ltibia 51.8771
lfoot -7.37824 -6.54196
ltoes -12.8585
112
root 24.2616 17.9226 -1.1298 12.5095 -74.1833 -336.465
lowerback 47.2369 -0.730709 9.63379
upperback 21.5826 0.00425368 1.74376
thorax 4.31034 -0.108464 -2.69227
lowerneck 4.10758 -4.77205 5.62026
upperneck -16.2555 -6.27404 -0.250291
head -5.77949 -3.53497 -0.588813
rclavicle 9.54166e-015 3.26007e-014
rhumerus 61.8113 -3.50478 -63.2299
rradius 14.9358
rwrist -7.50732
rhand -12.2971 9.42596
rfingers 7.12502
rthumb 13.7706 -20.0983
lclavicle 9.54166e-015 3.26007e-014
lhumerus 58.3328 -16.5748 81.1612
lradius 13.1528
lwrist -32.1214
lhand -26.062 -9.53992
lfingers 7.12502
lthumb 0.485878 20.4393
rfemur -76.8268 -16.9713 20.0523
rtibia 55.4913
rfoot -7.80494 15.1094
rtoes 1.01726
lfemur -73.3543 12.8482 -33.0769
ltibia 52.5182
lfoot -7.5342 -6.84881
ltoes -12.4037
113
root 24.2572 17.8779 -1.1124 12.9527 -74.0734 -336.43
lowerback 47.6398 -0.816898 9.68635
upperback 21.4801 -0.0159609 1.72944
thorax 4.13767 -0.11577 -2.71037
lowerneck 3.95315 -4.70337 5.74232
upperneck -16.3745 -6.19724 -0.33832
head -5.79498 -3.50419 -0.643408
rclavicle -7.95139e-015 -1.59028e-015
rhumerus 62.6761 -3.80876 -63.8529
rradius 14.5834
rwrist -6.83367
rhand -12.2661 9.42744
rfingers 7.12502
rthumb 13.8006 -20.0948
lclavicle -7.95139e-015 -1.59028e-015
lhumerus 58.6298 -16.0313 82.3731
lradius 12.7773
lwrist -33.7416
lhand -25.8928 -9.80059
lfingers 7.12502
lthumb 0.649262 20.1782
rfemur -77.6719 -17.0626 20.1005
rtibia 56.0472
rfoot -7.97843 15.0884
rtoes 1.05721
lfemur -74.2563 12.7636 -33.3853
ltibia 53.1488
lfoot -7.66267 -7.07449
ltoes -11.7222
114
root 24.253 17.834 -1.09567 13.3421 -73.9809 -336.361
lowerback 48.0224 -0.888848 9.70089
upperback 21.3915 -0.0391193 1.72409
thorax 3.98262 -0.128569 -2.70135
lowerneck 3.78476 -4.61954 5.77749
upperneck -16.4393 -6.10289 -0.396155
head -5.78631 -3.4603 -0.6771
rclavicle -3.18055e-014 -1.11319e-014
rhumerus 63.5202 -4.04566 -64.4476
rradius 14.2953
rwrist -6.19039
rhand -12.2623 9.42999
rfingers 7.12502
rthumb 13.8043 -20.092
lclavicle -3.18055e-014 -1.11319e-014
lhumerus 58.9319 -15.5204 83.4899
lradius 12.4373
lwrist -35.2472
lhand -25.7343 -9.91893
lfingers 7.12502
lthumb 0.802376 20.0593
rfemur -78.5046 -17.1609 20.1652
rtibia 56.5945
rfoot -8.12219 15.0918
rtoes 0.989136
lfemur -75.1271 12.6825 -33.6993
ltibia 53.7627
lfoot -7.80082 -7.28718
ltoes -11.4905
115
root 24.2472 17.7911 -1.07736 13.6682 -73.9135 -336.199
lowerback 48.3709 -0.962374 9.6895
upperback 21.2752 -0.0698259 1.68278
thorax 3.7994 -0.143326 -2.71722
lowerneck 3.74667 -4.53425 5.8805
upperneck -16.5729 -5.99695 -0.492705
head -5.8246 -3.41196 -0.730108
rclavicle 5.08889e-014 -6.52014e-014
rhumerus 64.3485 -4.27946 -65.2444
rradius 13.9613
rwrist -5.35041
rhand -12.26 9.53127
rfingers 7.12502
rthumb 13.8064 -19.9906
lclavicle 5.08889e-014 -6.52014e-014
lhumerus 59.1466 -14.9443 84.7276
lradius 12.0948
lwrist -36.8808
lhand -25.5321 -10.0828
lfingers 7.12502
lthumb 0.997675 19.8946
rfemur -79.3461 -17.242 20.1848
rtibia 57.1256
rfoot -8.27187 15.0955
rtoes 0.782625
lfemur -76.0094 12.5839 -34.0397
ltibia 54.3618
lfoot -7.95889 -7.47353
ltoes -11.2448
116
root 24.2415 17.7476 -1.06035 14.0869 -73.8379 -336.151
lowerback 48.7412 -1.03781 9.68106
upperback 21.1261 -0.0922148 1.6471
thorax 3.57812 -0.156381 -2.72985
lowerneck 3.82412 -4.44126 6.01732
upperneck -16.7433 -5.87145 -0.612261
head -5.89527 -3.35352 -0.793859
rclavicle -2.38542e-014 -9.54166e-015
rhumerus 65.1069 -4.44105 -65.9904
rradius 13.6548
rwrist -4.59341
rhand -12.2368 9.66766
rfingers 7.12502
rthumb 13.8288 -19.8527
lclavicle -2.38542e-014 -9.54166e-015
lhumerus 59.2959 -14.2945 86.119
lradius 11.7189
lwrist -38.7639
lhand -25.3134 -10.1905
lfingers 7.12502
lthumb 1.20887 19.7859
rfemur -80.1693 -17.3225 20.2471
rtibia 57.6517
rfoot -8.41455 15.09
rtoes 0.840148
lfemur -76.856 12.4768 -34.3063
ltibia 54.945
lfoot -8.10662 -7.65396
ltoes -10.8122
